HIERARCHY
ROOT hip
{
  OFFSET 0 0 0
  CHANNELS 6 Xposition Yposition Zposition Zrotation Yrotation Xrotation
  JOINT abdomen
  {
    OFFSET 0 20.6881 -0.73152
    CHANNELS 3 Zrotation Xrotation Yrotation
    JOINT chest
    {
      OFFSET 0 11.7043 -0.48768
      CHANNELS 3 Zrotation Xrotation Yrotation
      JOINT neck
      {
        OFFSET 0 22.1894 -2.19456
        CHANNELS 3 Zrotation Xrotation Yrotation
        JOINT head
        {
          OFFSET -0.24384 7.07133 1.2192
          CHANNELS 3 Zrotation Xrotation Yrotation
          JOINT leftEye
          {
            OFFSET 4.14528 8.04674 8.04672
            CHANNELS 3 Zrotation Xrotation Yrotation
            End Site
            {
              OFFSET 1 0 0
            }
          }
          JOINT rightEye
          {
            OFFSET -3.6576 8.04674 8.04672
            CHANNELS 3 Zrotation Xrotation Yrotation
            End Site
            {
              OFFSET 1 0 0
            }
          }
        }
      }
      JOINT rCollar
      {
        OFFSET -2.68224 19.2634 -4.8768
        CHANNELS 3 Zrotation Xrotation Yrotation
        JOINT rShldr
        {
          OFFSET -8.77824 -1.95073 1.46304
          CHANNELS 3 Zrotation Xrotation Yrotation
          JOINT rForeArm
          {
            OFFSET -28.1742 -1.7115 0.48768
            CHANNELS 3 Zrotation Xrotation Yrotation
            JOINT rHand
            {
              OFFSET -22.5879 0.773209 7.07136
              CHANNELS 3 Zrotation Xrotation Yrotation
              JOINT rThumb1
              {
                OFFSET -1.2192 -0.487915 3.41376
                CHANNELS 3 Zrotation Xrotation Yrotation
                JOINT rThumb2
                {
                  OFFSET -3.37035 -0.52449 3.41376
                  CHANNELS 3 Zrotation Xrotation Yrotation
                  End Site
                  {
                    OFFSET -1.78271 -1.18214 1.43049
                  }
                }
              }
              JOINT rIndex1
              {
                OFFSET -7.75947 0.938293 5.60832
                CHANNELS 3 Zrotation Xrotation Yrotation
                JOINT rIndex2
                {
                  OFFSET -2.54057 -0.884171 1.56538
                  CHANNELS 3 Zrotation Xrotation Yrotation
                  End Site
                  {
                    OFFSET -1.62519 -0.234802 1.16502
                  }
                }
              }
              JOINT rMid1
              {
                OFFSET -8.24714 1.18213 3.41376
                CHANNELS 3 Zrotation Xrotation Yrotation
                JOINT rMid2
                {
                  OFFSET -3.10165 -0.590103 1.0647
                  CHANNELS 3 Zrotation Xrotation Yrotation
                  End Site
                  {
                    OFFSET -2.48547 -0.328903 0.83742
                  }
                }
              }
              JOINT rRing1
              {
                OFFSET -8.82822 0.546677 1.51678
                CHANNELS 3 Zrotation Xrotation Yrotation
                JOINT rRing2
                {
                  OFFSET -2.60934 -0.819778 -0.0198488
                  CHANNELS 3 Zrotation Xrotation Yrotation
                  End Site
                  {
                    OFFSET -2.33842 -0.294052 0.168128
                  }
                }
              }
              JOINT rPinky1
              {
                OFFSET -8.27202 -0.0477905 -0.4584
                CHANNELS 3 Zrotation Xrotation Yrotation
                JOINT rPinky2
                {
                  OFFSET -1.82734 -0.647385 -0.700984
                  CHANNELS 3 Zrotation Xrotation Yrotation
                  End Site
                  {
                    OFFSET -1.69225 -0.51767 -0.607171
                  }
                }
              }
            }
          }
        }
      }
      JOINT lCollar
      {
        OFFSET 2.68224 19.2634 -4.8768
        CHANNELS 3 Zrotation Xrotation Yrotation
        JOINT lShldr
        {
          OFFSET 8.77824 -1.95073 1.46304
          CHANNELS 3 Zrotation Xrotation Yrotation
          JOINT lForeArm
          {
            OFFSET 28.1742 -1.7115 0.48768
            CHANNELS 3 Zrotation Xrotation Yrotation
            JOINT lHand
            {
              OFFSET 22.5879 0.773209 7.07136
              CHANNELS 3 Zrotation Xrotation Yrotation
              JOINT lThumb1
              {
                OFFSET 1.2192 -0.487915 3.41376
                CHANNELS 3 Zrotation Xrotation Yrotation
                JOINT lThumb2
                {
                  OFFSET 3.37035 -0.52449 3.41376
                  CHANNELS 3 Zrotation Xrotation Yrotation
                  End Site
                  {
                    OFFSET 1.78271 -1.18214 1.43049
                  }
                }
              }
              JOINT lIndex1
              {
                OFFSET 7.75947 0.938293 5.60832
                CHANNELS 3 Zrotation Xrotation Yrotation
                JOINT lIndex2
                {
                  OFFSET 2.54057 -0.884171 1.56538
                  CHANNELS 3 Zrotation Xrotation Yrotation
                  End Site
                  {
                    OFFSET 1.62519 -0.234802 1.16502
                  }
                }
              }
              JOINT lMid1
              {
                OFFSET 8.24714 1.18213 3.41376
                CHANNELS 3 Zrotation Xrotation Yrotation
                JOINT lMid2
                {
                  OFFSET 3.10165 -0.590103 1.0647
                  CHANNELS 3 Zrotation Xrotation Yrotation
                  End Site
                  {
                    OFFSET 2.48547 -0.328903 0.83742
                  }
                }
              }
              JOINT lRing1
              {
                OFFSET 8.82822 0.546677 1.51678
                CHANNELS 3 Zrotation Xrotation Yrotation
                JOINT lRing2
                {
                  OFFSET 2.60934 -0.819778 -0.0198488
                  CHANNELS 3 Zrotation Xrotation Yrotation
                  End Site
                  {
                    OFFSET 2.33842 -0.294052 0.168128
                  }
                }
              }
              JOINT lPinky1
              {
                OFFSET 8.27202 -0.0477905 -0.4584
                CHANNELS 3 Zrotation Xrotation Yrotation
                JOINT lPinky2
                {
                  OFFSET 1.82734 -0.647385 -0.700984
                  CHANNELS 3 Zrotation Xrotation Yrotation
                  End Site
                  {
                    OFFSET 1.69225 -0.51767 -0.607171
                  }
                }
              }
            }
          }
        }
      }
    }
  }
  JOINT rButtock
  {
    OFFSET -8.77824 4.35084 1.2192
    CHANNELS 3 Zrotation Xrotation Yrotation
    JOINT rThigh
    {
      OFFSET 0 -1.70687 -2.19456
      CHANNELS 3 Zrotation Xrotation Yrotation
      JOINT rShin
      {
        OFFSET 0 -36.8199 0.73152
        CHANNELS 3 Zrotation Xrotation Yrotation
        JOINT rFoot
        {
          OFFSET 0.73152 -45.1104 -5.12064
          CHANNELS 3 Zrotation Xrotation Yrotation
          End Site
          {
            OFFSET -1.1221 -3.69964 12.103
          }
        }
      }
    }
  }
  JOINT lButtock
  {
    OFFSET 8.77824 4.35084 1.2192
    CHANNELS 3 Zrotation Xrotation Yrotation
    JOINT lThigh
    {
      OFFSET 0 -1.70687 -2.19456
      CHANNELS 3 Zrotation Xrotation Yrotation
      JOINT lShin
      {
        OFFSET 0 -36.8199 0.73152
        CHANNELS 3 Zrotation Xrotation Yrotation
        JOINT lFoot
        {
          OFFSET -0.73152 -45.1104 -5.12064
          CHANNELS 3 Zrotation Xrotation Yrotation
          End Site
          {
            OFFSET 1.1221 -3.69964 12.103
          }
        }
      }
    }
  }
}
MOTION
Frames:	4
Frame Time:	0.03333
0.028899998869746923 55.47890067100525 0.09500000160187483 -8.887199676305055 -58.53190031888206 2.9693000907106906 -2.368149955535304 16.38719988501157 15.72689988473705 -3.22926989712607 -12.79929980645658 3.8963001950539913 -1.480560042702977 13.82619996514778 8.750080213622466 10.122200331080911 -21.17620068194435 19.159300461552945 -0.0 0.0 0.0 -0.0 0.0 0.0 -6.620100281541195e-14 5.939780261231376e-14 -6.168620190228133e-13 17.222400539362607 81.29390187892142 49.238300971866664 -26.60220028879815 -45.00320119586524 93.4674026781485 -30.46460054745408 -77.07119889626357 -37.7501994105666 7.799060000730125e-10 -1.4754900090836015e-08 2.0701999831431623e-09 1.2114500203633454e-09 -2.4467499866027142e-08 3.5558899515763504e-09 7.799069939963504e-10 -1.4754799903363549e-08 2.070190043909783e-09 7.730910121524428 5.474879855648998 0.41731399283890674 7.799030183029986e-10 -1.4754799903363549e-08 2.070190043909783e-09 2.90554006136521 0.9651829962377875 0.10290200252939893 7.799179768492349e-10 -1.4754900090836015e-08 2.0701999831431623e-09 10.278599710243157 0.7318009818271524 0.025912300303053633 7.799009807601558e-10 -1.4754900090836015e-08 2.0701999831431623e-09 2.221669932038622 -0.7334870246959406 -0.20891999872313852 -6.622110088681486e-14 5.939450247623069e-14 -6.170609978160568e-13 -62.33960100756994 4.159910065410164 -34.398301150855765 28.228999377386156 -32.21899952256897 -70.80529946490975 0.7859359939716156 24.333600767302606 -3.6439601368283396 -1.1194600300193816e-09 -3.5139399262128537e-10 2.9861100795195715e-09 -1.8851000496380246e-09 -7.13046019532794e-10 5.175829940406108e-09 -1.1194600300193816e-09 -3.5140000585748e-10 2.986140096004378e-09 -7.730910121524428 5.474879855648998 -0.41731399283890674 -1.1194600300193816e-09 -3.513960053160447e-10 2.9861200187529513e-09 -2.90554006136521 0.9651829962377875 -0.10290200252939893 -1.1194699692527612e-09 -3.5139901193414207e-10 2.9861200187529513e-09 -10.278599710243157 0.7318009818271524 -0.025912300303053633 -1.1194499913936683e-09 -3.513950113927068e-10 2.9861100795195715e-09 -2.221669932038622 -0.7334870246959406 0.20891999872313852 -2.0321699793705798e-16 0.0 -3.882510030490358e-19 -23.5977008181998 -36.695601127243705 -28.997199291073954 -7.416619820639937 84.47200256010669 10.08630000302968 -11.826800396957239 -22.42559937549059 -26.787100339819567 2.0321699793705798e-16 0.0 3.882510030490358e-19 60.9465019640758 -37.609299438178404 56.3834984664004 1.761779955008441 67.4116994852214 -1.9959200136952417 0.030802498970317893 2.8149399499025183 5.71142979717405
0.05620000010821968 55.623698234558105 0.16700000269338489 -9.257699872737813 -58.27479833814444 3.42609994074997 -1.9525500200129533 16.488100562072876 15.737300555295686 -3.3639499150579084 -12.87639983558133 3.9003799524226044 -1.4880900060977988 13.899900267613155 8.721260230419597 10.166699867297192 -21.345300797868234 19.12750080832466 -0.0 0.0 0.0 -0.0 0.0 0.0 -3.429710102593362e-14 7.46035011356307e-14 -1.818779976408262e-13 16.457600352334183 81.35389826059081 49.794800879777206 -26.59760015639215 -45.01380164945709 93.48930026462756 -30.278699873719255 -77.01719942068544 -37.55940149119688 4.4919898115013546e-10 -6.070050045347609e-09 6.288290066533257e-10 7.304149789520994e-10 -1.0200399856409844e-08 1.0941400317695857e-09 4.4919699330345956e-10 -6.070040106114229e-09 6.288180238004413e-10 7.730910121524428 5.474879855648998 0.41731399283890674 4.4919401153344567e-10 -6.07003016688085e-09 6.288229934171311e-10 2.90554006136521 0.9651829962377875 0.10290200252939893 4.4920002476964035e-10 -6.070040106114229e-09 6.28825975187145e-10 10.278599710243157 0.7318009818271524 0.025912300303053633 4.4919202368676977e-10 -6.070040106114229e-09 6.288319884233396e-10 2.221669932038622 -0.7334870246959406 -0.20891999872313852 -3.425860044936901e-14 7.459070097545559e-14 -1.8193999652091606e-13 -62.16580001394979 4.419549888311267 -34.69610081376291 28.19940075261791 -31.973099052070168 -70.40860207791542 0.7738999733544367 24.161099217172058 -3.614720096991515 1.1007400306067908e-10 -6.631639889707285e-10 4.857410199356395e-10 1.9564300016060387e-10 -1.1476999762514286e-09 8.349299936316665e-10 1.1006699590114649e-10 -6.631680143602473e-10 4.857619917180704e-10 -7.730910121524428 5.474879855648998 -0.41731399283890674 1.1006600197780852e-10 -6.631549939645201e-10 4.857399763161346e-10 -2.90554006136521 0.9651829962377875 -0.10290200252939893 1.1006899617186412e-10 -6.631670204369093e-10 4.857430077823154e-10 -10.278599710243157 0.7318009818271524 -0.025912300303053633 1.1008200414354964e-10 -6.631649828940665e-10 4.857369945461208e-10 -2.221669932038622 -0.7334870246959406 0.20891999872313852 -2.0321699793705798e-16 0.0 -3.882510030490358e-19 -23.15660037141121 -36.56120007985078 -28.748600895853 -6.814130114613581 84.0478000013247 9.480749945368334 -11.841599709341365 -22.234400182507134 -26.99560040197067 2.0321699793705798e-16 0.0 3.882510030490358e-19 61.251797759597025 -37.57400102054778 56.85780046274443 1.752439991483566 67.32369932795497 -1.9763999733775799 0.11711499920217401 2.4814600191014655 6.242879986303572
0.08800000068731606 55.77790141105652 0.22400000016205013 -9.710800108124472 -57.95539820198714 3.9987999901547266 -1.5240000458242582 16.526499885586688 15.639200255794087 -3.454329966363279 -12.971200299940168 3.879210207976973 -1.5121900084190716 13.96349957406973 8.707839762474167 10.215000403786583 -21.548300850190184 19.133299638929998 -0.0 0.0 0.0 -0.0 0.0 0.0 -1.6509399386971853e-14 5.031580081280868e-14 -4.1151498229876276e-13 15.653600002111766 81.4292010961902 50.3988013382706 -26.584199325240583 -45.04470142526223 93.55260245785524 -30.278399345395776 -77.01709696784789 -37.559100962873394 2.0847499771913533e-10 -6.181530077210246e-09 1.252769997722911e-09 2.804940118892717e-10 -1.009009981033403e-08 2.1378299063971297e-09 2.084730098724594e-10 -6.1815201379768665e-09 1.2527599590971977e-09 7.730910121524428 5.474879855648998 0.41731399283890674 2.084730098724594e-10 -6.1815201379768665e-09 1.252769997722911e-09 2.90554006136521 0.9651829962377875 0.10290200252939893 2.0847499771913533e-10 -6.1815201379768665e-09 1.252769997722911e-09 10.278599710243157 0.7318009818271524 0.025912300303053633 2.0846699663626477e-10 -6.1815201379768665e-09 1.2527800363486245e-09 2.221669932038622 -0.7334870246959406 -0.20891999872313852 -1.6489800279158707e-14 5.0306701172873765e-14 -4.1163699027101005e-13 -62.140699068749996 4.592010030419973 -34.87180059997232 28.17600052452144 -31.792300529645345 -70.12019734021162 0.7753729996984852 24.182899473455446 -3.6183900430099274 -2.712839952146741e-10 -5.54885980533655e-10 1.3658200308901854e-09 -4.47665009566499e-10 -9.978220022504867e-10 2.360439910322775e-09 -2.712959968389799e-10 -5.548909998465116e-10 1.3658400087492785e-09 -7.730910121524428 5.474879855648998 -0.41731399283890674 -2.712929902208826e-10 -5.548779794507844e-10 1.3658200308901854e-09 -2.90554006136521 0.9651829962377875 -0.10290200252939893 -2.712900084508687e-10 -5.548900059231737e-10 1.3658200308901854e-09 -10.278599710243157 0.7318009818271524 -0.025912300303053633 -2.712780068265629e-10 -5.548870241531598e-10 1.365809992264472e-09 -2.221669932038622 -0.7334870246959406 0.20891999872313852 -2.0321699793705798e-16 0.0 -3.882510030490358e-19 -22.732199737143294 -36.44659975086172 -28.579999383738528 -6.269440030664813 83.5990019313415 8.927670254684674 -11.837399996775453 -22.040800178030416 -27.1691999050103 2.0321699793705798e-16 0.0 3.882510030490358e-19 61.57050121645899 -37.617301004791074 57.33999815776899 1.7427700444444145 67.21899935816784 -1.9549499777325665 0.1959379969059128 2.286769959121895 6.844069821953509
0.1264999998966232 55.935102701187134 0.2730000007431954 -10.117500307158297 -57.59880085560994 4.579999996538152 -1.082649976965842 16.502500308390555 15.432699731522506 -3.5005400380798233 -13.083700345759448 3.83272991690139 -1.5529200272654442 14.016999592064792 8.70982990884358 10.267699582101462 -21.785299876653163 19.176900151496774 -0.0 0.0 0.0 -0.0 0.0 0.0 -1.2838099607211863e-14 -1.3465500064837537e-14 -1.3057699883147244e-12 14.805700318546382 81.51970110269286 51.05489906465827 -26.561900465147787 -45.09590052328065 93.65750050312829 -30.463698962483637 -77.07100082077763 -37.74930124069074 5.773539778853908e-11 -1.508930042949041e-08 3.94203990274483e-09 -1.3831100479483736e-10 -2.41365997277997e-08 6.686960370597652e-09 5.773470204220251e-11 -1.508930042949041e-08 3.9420200242780715e-09 7.730910121524428 5.474879855648998 0.41731399283890674 5.773949772230816e-11 -1.508930042949041e-08 3.94203990274483e-09 2.90554006136521 0.9651829962377875 0.10290200252939893 5.774200116671564e-11 -1.508930042949041e-08 3.942029963511451e-09 10.278599710243157 0.7318009818271524 0.025912300303053633 5.772580021630693e-11 -1.508930042949041e-08 3.94203990274483e-09 2.221669932038622 -0.7334870246959406 -0.20891999872313852 -1.2914800472223238e-14 -1.3457399868688809e-14 -1.3061499892784062e-12 -62.26619696455981 4.678720135706931 -34.9246013773511 28.16110046684706 -31.679001351693174 -69.93710045913109 0.7904379957691532 24.398900790862513 -3.655019920641883 -2.263539938689302e-09 -2.6560600936192513e-11 5.626359884298102e-09 -3.815020078277898e-09 -2.6341801137382926e-10 9.752359889264101e-09 -2.263550076707349e-09 -2.656759877769382e-11 5.626359884298102e-09 -7.730910121524428 5.474879855648998 -0.41731399283890674 -2.263539938689302e-09 -2.6564601477627792e-11 5.626349945064723e-09 -2.90554006136521 0.9651829962377875 -0.10290200252939893 -2.263539938689302e-09 -2.6566300465333612e-11 5.626349945064723e-09 -10.278599710243157 0.7318009818271524 -0.025912300303053633 -2.2635299994559223e-09 -2.6560299653180694e-11 5.626340005831343e-09 -2.221669932038622 -0.7334870246959406 0.20891999872313852 -2.0321699793705798e-16 0.0 -3.882510030490358e-19 -22.32350000022995 -36.35240119692349 -28.490800528272747 -5.778229901030421 83.12549906713038 8.422729737271265 -11.814699863068915 -21.844799362060435 -27.30810033951897 2.0321699793705798e-16 0.0 3.882510030490358e-19 61.905002900871196 -37.7384002587754 57.83229770257599 1.7328299847679305 67.09770202869758 -1.9316500680395374 0.2636060016943382 2.2304200446956433 7.515010403181263
